<svg width="24" height="24" viewBox="0 0 24 24" fill="none" xmlns="http://www.w3.org/2000/svg">
<path d="M10.2778 18.4773V18.3872H9.89819C10.0204 18.4194 10.1491 18.4515 10.2778 18.4773Z" fill="#23B574"/>
<path d="M12.7234 18.3872V18.4385C12.7875 18.4257 12.8516 18.4064 12.9157 18.3872H12.7234Z" fill="#23B574"/>
<path d="M15.334 17.1134C15.7457 16.7596 16.1125 16.335 16.4148 15.8589C15.6557 14.7716 14.4204 13.9609 12.9535 13.6264C13.9121 13.0988 14.5619 12.0823 14.5619 10.9178C14.5619 9.21284 13.1787 7.82959 11.4737 7.82959C9.76881 7.82959 8.38557 9.21284 8.38557 10.9178C8.38557 12.0887 9.03537 13.1052 9.99399 13.6264C8.50781 13.9609 7.25967 14.7973 6.50049 15.9039C6.88651 16.5022 7.37547 17.0362 7.95451 17.4673C8.55284 17.8983 9.20908 18.2072 9.90392 18.3873H10.2835V17.493H12.7283V18.3873H12.9213C13.8028 18.1557 14.6263 17.7246 15.334 17.1134Z" fill="#0C579B"/>
<path d="M12.7234 4.55371V6.21361C14.1774 6.48382 15.4577 7.23657 16.4099 8.2917C16.4035 8.29813 16.3906 8.30456 16.3842 8.311C17.1433 9.30822 17.6001 10.3119 17.8189 11.2769H19.6139C19.0091 7.80273 16.2233 5.07484 12.7234 4.55371Z" fill="#23B574"/>
<path d="M10.2777 6.20824V4.54834C7.8329 4.91506 5.73551 6.35621 4.48737 8.38283C3.94694 9.23208 3.56735 10.2229 3.38721 11.278H5.05354C5.6197 8.71095 7.68493 6.6972 10.2777 6.20824Z" fill="#23B574"/>
<path d="M15.7537 17.5947C14.8594 18.3732 13.8107 18.875 12.7234 19.0937V20.8373C13.9201 20.6571 15.0395 20.2196 16.011 19.5827C16.011 19.5827 17.3943 18.6048 18.1792 17.511C18.9705 16.4173 19.4981 15.1241 19.6718 13.728H17.9025C17.6323 15.3365 16.7702 16.7133 15.7537 17.5947Z" fill="#23B574"/>
<path d="M7.56892 17.9872C6.2114 16.9771 5.25921 15.4588 4.98257 13.7217H3.3291C3.42561 14.513 3.63792 15.2979 3.98534 16.0571C3.99821 16.0829 4.01107 16.1086 4.01751 16.1343C4.02394 16.1472 4.03038 16.1601 4.03681 16.1729C5.18201 18.6242 7.50458 20.4256 10.2775 20.8374V19.126C9.31889 18.9587 8.39243 18.5791 7.56892 17.9872Z" fill="#23B574"/>
<path d="M12.2081 2H10.7927V6.99256H12.2081V2Z" fill="#23B574"/>
<path d="M12.2081 18.0073H10.7927V22.9999H12.2081V18.0073Z" fill="#23B574"/>
<path d="M22.0009 11.7915H17.0083V13.2069H22.0009V11.7915Z" fill="#23B574"/>
<path d="M5.9928 11.7915H1.00024V13.2069H5.9928V11.7915Z" fill="#23B574"/>
</svg>
