<svg width="14" height="14" viewBox="0 0 14 14" fill="none" xmlns="http://www.w3.org/2000/svg">
<path d="M8.00906 12.2498C7.90662 12.4268 7.75946 12.5737 7.58233 12.6758C7.40521 12.7779 7.20435 12.8317 6.99989 12.8317C6.79543 12.8317 6.59457 12.7779 6.41745 12.6758C6.24032 12.5737 6.09316 12.4268 5.99072 12.2498M11.0832 4.6665C11.5474 4.6665 11.9925 4.48213 12.3207 4.15394C12.6488 3.82575 12.8332 3.38063 12.8332 2.9165C12.8332 2.45238 12.6488 2.00726 12.3207 1.67907C11.9925 1.35088 11.5474 1.1665 11.0832 1.1665C10.6191 1.1665 10.174 1.35088 9.84579 1.67907C9.5176 2.00726 9.33322 2.45238 9.33322 2.9165C9.33322 3.38063 9.5176 3.82575 9.84579 4.15394C10.174 4.48213 10.6191 4.6665 11.0832 4.6665Z" stroke="#0C579B" stroke-width="1.5" stroke-linecap="round" stroke-linejoin="round"/>
<path d="M10.5782 6.4165C10.9171 9.55192 12.25 10.4998 12.25 10.4998H1.75C1.75 10.4998 3.5 9.25559 3.5 4.89984C3.5 3.90992 3.86867 2.96025 4.52492 2.26025C5.18175 1.56025 6.0725 1.1665 7 1.1665C7.19658 1.1665 7.392 1.184 7.58333 1.219" stroke="#23B574" stroke-width="1.5" stroke-linecap="round" stroke-linejoin="round"/>
</svg>
