<svg width="24" height="24" viewBox="0 0 24 24" fill="none" xmlns="http://www.w3.org/2000/svg">
<path d="M12.7446 12.3466C14.1157 12.3466 15.2272 11.2351 15.2272 9.86399C15.2272 8.49286 14.1157 7.38135 12.7446 7.38135C11.3735 7.38135 10.262 8.49286 10.262 9.86399C10.262 11.2351 11.3735 12.3466 12.7446 12.3466Z" fill="#0C579B"/>
<path d="M20.1083 8.37489C19.3246 6.41298 17.8255 4.87185 15.8847 4.03553C13.9438 3.19922 11.7925 3.17292 9.8306 3.95138C9.02058 4.27222 8.31051 4.74561 7.64251 5.26107C6.84301 5.87647 5.9804 7.22299 5.9804 7.22299C5.80156 7.5228 5.63851 7.83839 5.49649 8.16976C4.84428 9.68985 4.68122 11.3414 5.02311 12.9299L7.39003 12.2567C6.94295 9.75823 8.29473 7.20195 10.7458 6.22888C13.544 5.1138 16.721 6.48135 17.8361 9.27959C18.2148 10.2316 18.3042 11.2257 18.1517 12.1725L20.4818 13.0509C20.8289 11.5045 20.7079 9.88447 20.1083 8.37489Z" fill="#23B574"/>
<path d="M19.3776 15.4655C19.4039 15.434 19.4355 15.3971 19.4618 15.3656C19.4618 15.3656 14.528 10.7843 8.17416 14.261C8.17416 14.261 7.44304 14.7028 6.73296 15.2972C6.60147 15.4077 6.46997 15.5181 6.33322 15.6286C5.75463 16.0914 5.16553 16.5543 4.57643 17.0066L1.42053 19.4314C0.910328 19.8259 0.85247 20.5728 1.2943 21.0409L2.05697 21.851C2.47776 22.298 3.17732 22.3086 3.61388 21.8825L7.97428 17.601C8.47923 17.9797 9.02625 18.3006 9.62061 18.5583C11.5299 19.3788 13.6707 19.4209 15.6063 18.6688C17.2211 18.0428 18.5571 16.933 19.4512 15.4918L19.3776 15.4655Z" fill="#0C579B"/>
<path d="M19.2668 4.65656C17.4995 2.92082 15.1588 1.97931 12.6815 2.00035C10.2041 2.02138 7.88449 3.01023 6.14875 4.77754C4.413 6.54484 3.47149 8.88547 3.49253 11.3628C3.50831 13.0144 3.95014 14.5924 4.76541 15.9757C4.83905 15.9126 4.91795 15.8495 4.99158 15.7864C4.23417 14.4819 3.79234 12.9724 3.77656 11.3576C3.72923 6.40282 7.72144 2.32645 12.6815 2.28438C17.6362 2.23704 21.7126 6.22925 21.7547 11.1893C21.802 16.144 17.8098 20.2204 12.8498 20.2625C10.9878 20.2783 9.24679 19.726 7.80034 18.7687L7.5952 18.9791C9.13633 20.0153 10.951 20.5676 12.8498 20.5465C15.3272 20.5255 17.6467 19.5366 19.3825 17.7693C21.1182 16.002 22.0597 13.6614 22.0387 11.184C22.0229 8.70663 21.0341 6.38705 19.2668 4.65656Z" fill="#23B574"/>
</svg>
