<svg width="14" height="14" viewBox="0 0 14 14" fill="none" xmlns="http://www.w3.org/2000/svg">
<path d="M7 3.5L7.8365 5.12006L9.625 5.37994L8.3125 6.5625L8.75 8.3125L7 7.32812L5.25 8.3125L5.6875 6.5625L4.375 5.37994L6.2125 5.12006L7 3.5Z" fill="#0C579B"/>
<path d="M7.9777 12.7432C7.85731 12.9538 7.58868 13.0266 7.37844 12.9055C7.16922 12.785 7.09689 12.5179 7.21668 12.3083L8.75 9.625H11.375C11.49 9.62517 11.6038 9.60266 11.7101 9.55875C11.8163 9.51484 11.9128 9.45039 11.9941 9.3691C12.0754 9.28782 12.1398 9.19129 12.1837 9.08505C12.2277 8.97881 12.2502 8.86495 12.25 8.75V3.5C12.2502 3.38504 12.2277 3.27119 12.1837 3.16495C12.1398 3.05871 12.0754 2.96218 11.9941 2.8809C11.9128 2.79961 11.8163 2.73517 11.7101 2.69125C11.6038 2.64734 11.49 2.62483 11.375 2.625H2.625C2.51004 2.62483 2.39619 2.64734 2.28995 2.69125C2.18371 2.73517 2.08718 2.79961 2.0059 2.8809C1.92461 2.96218 1.86017 3.05871 1.81625 3.16495C1.77234 3.27119 1.74983 3.38504 1.75 3.5V8.75C1.74983 8.86495 1.77234 8.97881 1.81625 9.08505C1.86017 9.19129 1.92461 9.28782 2.0059 9.3691C2.08718 9.45039 2.18371 9.51484 2.28995 9.55875C2.39619 9.60266 2.51004 9.62517 2.625 9.625H6.125C6.36662 9.625 6.5625 9.82088 6.5625 10.0625C6.5625 10.3041 6.36662 10.5 6.125 10.5H2.625C2.16087 10.5 1.71575 10.3156 1.38756 9.98744C1.05937 9.65925 0.875 9.21413 0.875 8.75V3.5C0.874943 3.27017 0.920168 3.04258 1.00809 2.83024C1.09602 2.61789 1.22492 2.42495 1.38744 2.26244C1.54995 2.09992 1.74289 1.97102 1.95524 1.88309C2.16758 1.79517 2.39517 1.74994 2.625 1.75H11.375C11.6048 1.74994 11.8324 1.79517 12.0448 1.88309C12.2571 1.97102 12.4501 2.09992 12.6126 2.26244C12.7751 2.42495 12.904 2.61789 12.9919 2.83024C13.0798 3.04258 13.1251 3.27017 13.125 3.5V8.75C13.125 9.21413 12.9406 9.65925 12.6124 9.98744C12.2842 10.3156 11.8391 10.5 11.375 10.5H9.25969L7.9777 12.7432Z" fill="#23B574"/>
</svg>
