<svg width="24" height="24" viewBox="0 0 24 24" fill="none" xmlns="http://www.w3.org/2000/svg">
<path d="M10.903 7.89836C10.903 9.15365 10.903 10.4018 10.903 11.6571C10.903 12.3592 10.6264 12.6358 9.92427 12.6358C7.9385 12.6358 5.95273 12.6358 3.96696 12.6358C3.29321 12.6358 3.00244 12.338 3.00244 11.6642C3.00244 9.14655 3.00244 6.62888 3.00244 4.1183C3.00244 3.46583 3.30031 3.16797 3.95987 3.16797C5.95982 3.16797 7.95268 3.16797 9.95263 3.16797C10.6264 3.16797 10.9101 3.45165 10.9172 4.13958C10.903 5.38778 10.903 6.64307 10.903 7.89836ZM4.59106 4.75658C4.59106 6.8771 4.59106 8.95507 4.59106 11.0401C6.17967 11.0401 7.7541 11.0401 9.32144 11.0401C9.32144 8.93379 9.32144 6.84873 9.32144 4.75658C7.73283 4.75658 6.17258 4.75658 4.59106 4.75658Z" fill="#23B574"/>
<path d="M12.3215 15.6716C12.3215 14.4163 12.3215 13.1681 12.3215 11.9128C12.3215 11.2107 12.5981 10.9341 13.3002 10.9341C15.286 10.9341 17.2718 10.9341 19.2576 10.9341C19.9313 10.9341 20.2221 11.2249 20.2221 11.9057C20.2221 14.4092 20.2221 16.9198 20.2221 19.4232C20.2221 20.1183 19.9313 20.4019 19.2363 20.4019C17.2576 20.4019 15.286 20.4019 13.3073 20.4019C12.591 20.4019 12.3145 20.1254 12.3145 19.402C12.3215 18.1609 12.3215 16.9127 12.3215 15.6716ZM18.6335 18.8133C18.6335 16.6999 18.6335 14.6148 18.6335 12.5298C17.0448 12.5298 15.4704 12.5298 13.9031 12.5298C13.9031 14.6361 13.9031 16.7212 13.9031 18.8133C15.4846 18.8133 17.0519 18.8133 18.6335 18.8133Z" fill="#23B574"/>
<path d="M16.2644 9.47988C15.2787 9.47988 14.2858 9.47988 13.3 9.47988C12.5979 9.47988 12.3284 9.21038 12.3284 8.52245C12.3284 7.0544 12.3284 5.58635 12.3284 4.1183C12.3284 3.45165 12.6121 3.16797 13.2787 3.16797C15.2787 3.16797 17.2786 3.16797 19.2715 3.16797C19.9452 3.16797 20.236 3.46583 20.236 4.14667C20.236 5.60763 20.236 7.0615 20.236 8.52245C20.236 9.1962 19.9523 9.47988 19.2644 9.48697C18.2573 9.47988 17.2644 9.47988 16.2644 9.47988ZM18.6403 4.77077C17.0446 4.77077 15.4701 4.77077 13.9099 4.77077C13.9099 5.83457 13.9099 6.86292 13.9099 7.91254C15.4985 7.91254 17.0588 7.91254 18.6403 7.91254C18.6403 6.85583 18.6403 5.82039 18.6403 4.77077Z" fill="#23B574"/>
<path d="M6.95247 14.0896C7.95245 14.0896 8.95243 14.0896 9.9524 14.0896C10.6261 14.0896 10.9027 14.3591 10.9027 15.0328C10.9027 16.5009 10.9027 17.9689 10.9027 19.437C10.9027 20.1178 10.6191 20.4015 9.93113 20.4015C7.94536 20.4015 5.95249 20.4015 3.96673 20.4015C3.29298 20.4015 2.99512 20.1036 2.99512 19.437C2.99512 17.9689 2.99512 16.5009 2.99512 15.0328C2.99512 14.3874 3.28589 14.0967 3.92417 14.0896C4.93124 14.0825 5.9454 14.0896 6.95247 14.0896ZM9.32121 18.8129C9.32121 17.742 9.32121 16.7065 9.32121 15.6711C7.7326 15.6711 6.15816 15.6711 4.58373 15.6711C4.58373 16.7278 4.58373 17.7633 4.58373 18.8129C6.17235 18.8129 7.7326 18.8129 9.32121 18.8129Z" fill="#23B574"/>
<path d="M4.59082 4.75635C6.17234 4.75635 7.73968 4.75635 9.32121 4.75635C9.32121 6.8485 9.32121 8.93356 9.32121 11.0399C7.75387 11.0399 6.17944 11.0399 4.59082 11.0399C4.59082 8.95483 4.59082 6.86977 4.59082 4.75635Z" fill="#0C579B"/>
<path d="M18.6325 18.8128C17.051 18.8128 15.4836 18.8128 13.9021 18.8128C13.9021 16.7207 13.9021 14.6356 13.9021 12.5293C15.4765 12.5293 17.0439 12.5293 18.6325 12.5293C18.6325 14.6144 18.6325 16.6994 18.6325 18.8128Z" fill="#0C579B"/>
<path d="M9.32146 18.8136C7.73285 18.8136 6.1726 18.8136 4.58398 18.8136C4.58398 17.764 4.58398 16.7286 4.58398 15.6719C6.15842 15.6719 7.72576 15.6719 9.32146 15.6719C9.32146 16.7144 9.32146 17.7428 9.32146 18.8136Z" fill="#0C579B"/>
</svg>
