<svg width="24" height="24" viewBox="0 0 24 24" fill="none" xmlns="http://www.w3.org/2000/svg">
<path d="M17.8408 9.84089C17.7746 9.60892 17.642 9.52938 17.4299 9.46974C16.8401 9.3173 16.2568 9.15823 15.6802 8.96603C14.865 8.68767 14.063 8.38279 13.2611 8.07129C12.4989 7.77305 11.7964 7.89235 11.1469 8.36954C11.0342 8.44907 10.9215 8.53523 10.8155 8.62802C10.1991 9.15823 9.60924 9.71496 9.29111 10.4904C9.19833 10.7091 9.06577 10.9676 9.23146 11.1731C9.40378 11.3851 9.68877 11.3454 9.94063 11.3255C10.3582 11.2923 10.61 11.0007 10.8751 10.729C10.9878 10.6163 11.1071 10.4838 11.2463 10.4241C11.5975 10.2849 11.9687 10.1922 12.32 10.0596C12.5784 9.96681 12.7707 10.0066 12.9761 10.1922C13.6853 10.8085 14.4077 11.3984 15.1169 12.0081C15.8658 12.651 16.6081 13.3072 17.3438 13.9633C17.5161 14.1224 17.6685 14.3079 17.8276 14.4803C18.2385 14.2616 18.6295 14.0495 19.0471 13.8308C19.0073 13.6717 18.9808 13.5656 18.9477 13.4596C18.5831 12.2534 18.2054 11.0471 17.8408 9.84089Z" fill="#0C579B"/>
<path d="M18.8085 7.93789C18.2319 8.1301 18.2054 8.17649 18.3843 8.7531C18.9344 10.5426 19.4978 12.3254 20.0545 14.1083C20.1208 14.327 20.1805 14.5457 20.2666 14.7578C20.3859 15.0627 20.5914 15.1554 20.9029 15.0295C21.0752 14.9566 21.2475 14.8705 21.4265 14.7909C21.4265 12.2393 21.4265 9.72074 21.4265 7.18896C21.3204 7.20222 21.2409 7.19559 21.1746 7.21548C20.3727 7.44745 19.584 7.67941 18.8085 7.93789Z" fill="#0C579B"/>
<path d="M22.2608 6.73192C22.2608 6.23485 22.1084 6.10229 21.6246 6.24147C20.4979 6.56623 19.3712 6.91087 18.2445 7.25551C17.8004 7.39469 17.5684 7.72608 17.4757 8.1635C17.4425 8.30931 17.4293 8.45512 17.4027 8.61419C16.2164 8.31594 15.0963 7.91828 13.9895 7.47422C13.5918 7.31516 13.1743 7.18261 12.7567 7.1097C12.0078 6.98377 11.3384 7.24225 10.7154 7.65317C10.5762 7.74596 10.4039 7.83212 10.2382 7.852C9.47603 7.95804 8.70722 8.0442 7.93841 8.13699C7.57389 8.17676 7.21599 8.21652 6.85147 8.25629C6.79845 8.11711 6.75868 8.01107 6.71229 7.91165C6.5731 7.60015 6.36102 7.35493 6.02301 7.24888C4.87642 6.89762 3.72983 6.53972 2.57661 6.20171C2.22534 6.09566 2.05302 6.24147 2.02651 6.61262C2.00663 6.85122 2 7.09645 2 7.33504C2 9.64148 2.00663 11.9479 2.01326 14.2543C2.01326 14.5791 2.04639 14.9039 2.06628 15.2286C2.36452 15.3943 2.64951 15.5799 2.96101 15.7257C3.76959 16.1167 4.47213 15.8317 4.79026 14.99C4.90956 14.6719 5.00897 14.3538 5.1349 14.0025C5.30059 14.1284 5.43977 14.2345 5.57895 14.3405C7.12983 15.56 8.68071 16.7861 10.2448 17.999C10.5232 18.2111 10.8347 18.3967 11.1528 18.5425C11.7427 18.8142 12.3591 18.9202 12.9887 18.622C13.108 18.569 13.2604 18.5756 13.393 18.5889C14.0027 18.6286 14.4799 18.4033 14.8312 17.9062C14.9306 17.767 15.0234 17.7206 15.2024 17.7206C15.7856 17.714 16.2827 17.4953 16.6406 17.0048C16.7068 16.9121 16.8195 16.8193 16.9256 16.7928C17.7673 16.574 18.0523 16.2692 18.1649 15.4341C18.1782 15.3413 18.2047 15.2087 18.271 15.1756C18.6156 14.9768 18.9735 14.8044 19.338 14.6189C19.4109 14.8111 19.4573 14.9569 19.517 15.0894C19.8351 15.8052 20.531 16.077 21.2468 15.7456C21.4987 15.6329 21.7439 15.4871 21.9957 15.3678C22.2078 15.2684 22.2741 15.1093 22.2741 14.8774C22.2608 12.1865 22.2608 9.4559 22.2608 6.73192ZM4.08772 14.5327C4.05458 14.6388 4.02145 14.7514 3.96842 14.8508C3.84913 15.0696 3.66355 15.1358 3.42495 15.0497C3.22612 14.9701 3.03392 14.8774 2.85497 14.7912C2.85497 12.2528 2.85497 9.73427 2.85497 7.19586C2.96101 7.20249 3.04055 7.19586 3.10682 7.21574C3.90215 7.46097 4.69747 7.70619 5.49942 7.95142C5.55907 7.9713 5.61872 7.99118 5.67837 8.01769C6.00975 8.15688 6.04952 8.22978 5.9501 8.56779C5.77115 9.18417 5.59221 9.80717 5.4 10.4235C4.96258 11.7888 4.52515 13.1608 4.08772 14.5327ZM17.184 15.8119C16.9322 16.0571 16.7599 16.0703 16.5014 15.8185C15.8651 15.2021 15.2355 14.5725 14.5992 13.9561C14.4269 13.7904 14.2546 13.6181 14.069 13.459C13.8901 13.3132 13.7575 13.3265 13.5985 13.4723C13.4261 13.6247 13.3996 13.7904 13.5255 13.976C13.5918 14.0688 13.6714 14.1483 13.7509 14.2345C14.3938 14.9039 15.0367 15.5666 15.6795 16.2294C15.7657 16.3222 15.8452 16.415 15.9181 16.5078C15.6332 16.9717 15.2024 17.0579 14.8378 16.7066C14.2678 16.1631 13.7178 15.5998 13.161 15.0497C13.0351 14.9237 12.9025 14.8044 12.7634 14.6984C12.6043 14.5725 12.4519 14.6189 12.3193 14.7514C12.1934 14.8774 12.1139 15.0165 12.2265 15.1889C12.2862 15.2816 12.3591 15.3744 12.4386 15.454C12.9489 15.9842 13.4593 16.5078 13.9696 17.038C14.0558 17.1308 14.1419 17.2236 14.2413 17.3296C14.1552 17.429 14.0955 17.5218 14.016 17.6013C13.7443 17.8466 13.4725 17.8532 13.2074 17.6013C12.7501 17.1639 12.2994 16.7132 11.8487 16.2692C11.63 16.0571 11.4179 15.8384 11.186 15.6395C10.954 15.4274 10.7949 15.4208 10.6226 15.5865C10.4437 15.7655 10.4437 15.9378 10.6491 16.183C10.8413 16.4017 11.0402 16.6138 11.2456 16.8259C11.5969 17.1904 11.9482 17.5483 12.3127 17.9195C11.9614 17.999 11.524 17.8996 11.1396 17.6345C10.8546 17.4423 10.5762 17.2434 10.3111 17.0313C8.74036 15.792 7.1696 14.546 5.59883 13.3066C5.53919 13.2602 5.48616 13.2072 5.40663 13.1276C5.82418 11.7955 6.24172 10.4567 6.65926 9.11126C7.58051 8.99196 8.44874 8.88592 9.40976 8.76C9.28383 8.93894 9.2043 9.05161 9.11814 9.16428C8.80664 9.56857 8.54153 9.99937 8.42223 10.5031C8.38246 10.6754 8.35595 10.8543 8.35595 11.0267C8.34933 11.4972 8.57467 11.822 9.01872 11.9877C9.78091 12.2727 10.51 12.1998 11.1064 11.6298C11.5107 11.2454 11.9813 11.0399 12.4916 10.8742C13.2074 11.4707 13.9365 12.054 14.6523 12.6637C15.3548 13.2668 16.0507 13.8766 16.7334 14.4996C16.9388 14.6851 17.1111 14.9105 17.2569 15.1491C17.4094 15.4142 17.3696 15.6395 17.184 15.8119ZM17.8335 14.4863C17.6745 14.314 17.522 14.1218 17.3497 13.9694C16.6141 13.3132 15.8718 12.6571 15.1228 12.0142C14.4137 11.4044 13.6846 10.808 12.9821 10.1982C12.7766 10.0193 12.5844 9.97286 12.3259 10.0656C11.9747 10.1982 11.6035 10.291 11.2523 10.4302C11.1131 10.4898 10.9938 10.6157 10.8811 10.735C10.616 11.0068 10.3641 11.2984 9.9466 11.3315C9.69475 11.3514 9.40976 11.3912 9.23744 11.1791C9.07174 10.967 9.2043 10.7152 9.29708 10.4964C9.61521 9.72101 10.1985 9.16428 10.8215 8.63407C10.9275 8.54128 11.0402 8.46175 11.1528 8.37559C11.8024 7.8984 12.4983 7.78573 13.2671 8.07734C14.069 8.38884 14.871 8.69372 15.6862 8.97208C16.2628 9.17091 16.846 9.32335 17.4359 9.47579C17.648 9.52881 17.7805 9.61497 17.8468 9.84694C18.2113 11.0598 18.5957 12.2594 18.9669 13.4723C19 13.5783 19.0265 13.691 19.0663 13.8434C18.6421 14.0555 18.2511 14.2676 17.8335 14.4863ZM21.4125 14.7912C21.2336 14.8707 21.0679 14.9569 20.8889 15.0298C20.584 15.1557 20.372 15.0629 20.2527 14.7581C20.1731 14.546 20.1068 14.3273 20.0406 14.1085C19.4838 12.3257 18.9205 10.5362 18.3704 8.75337C18.1914 8.17676 18.218 8.12374 18.7946 7.93816C19.5766 7.68631 20.3653 7.45434 21.1474 7.21574C21.2137 7.19586 21.2932 7.20249 21.3992 7.18923C21.4125 9.72101 21.4125 12.2395 21.4125 14.7912Z" fill="#23B574"/>
</svg>
