<svg width="24" height="24" viewBox="0 0 24 24" fill="none" xmlns="http://www.w3.org/2000/svg">
<path d="M14.4765 13.4755C14.9046 13.4755 15.2516 13.1285 15.2516 12.7004C15.2516 12.2723 14.9046 11.9253 14.4765 11.9253C14.0484 11.9253 13.7014 12.2723 13.7014 12.7004C13.7014 13.1285 14.0484 13.4755 14.4765 13.4755Z" fill="#0C579B"/>
<path d="M16.6487 13.4755C17.0767 13.4755 17.4238 13.1285 17.4238 12.7004C17.4238 12.2723 17.0767 11.9253 16.6487 11.9253C16.2206 11.9253 15.8735 12.2723 15.8735 12.7004C15.8735 13.1285 16.2206 13.4755 16.6487 13.4755Z" fill="#0C579B"/>
<path d="M18.8154 13.4755C19.2435 13.4755 19.5905 13.1285 19.5905 12.7004C19.5905 12.2723 19.2435 11.9253 18.8154 11.9253C18.3873 11.9253 18.0403 12.2723 18.0403 12.7004C18.0403 13.1285 18.3873 13.4755 18.8154 13.4755Z" fill="#0C579B"/>
<path d="M22.957 19.6584L21.8197 16.1958C22.4614 15.1856 22.8045 14.0229 22.8045 12.8158C22.8045 9.34046 19.9772 6.50684 16.4955 6.50684C15.2312 6.50684 14.0495 6.88169 13.0647 7.52338C13.2426 7.85376 13.3887 8.2032 13.5094 8.5717C14.3544 7.97448 15.39 7.61868 16.5019 7.61868C19.3673 7.61868 21.699 9.95039 21.699 12.8158C21.699 13.8895 21.375 14.9188 20.7587 15.7955C20.657 15.9417 20.6316 16.1196 20.6824 16.2911L21.5211 18.8452L18.7828 17.6761C18.7129 17.6444 18.6366 17.6317 18.5667 17.6317C18.4969 17.6317 18.4333 17.6444 18.3634 17.6698C17.7662 17.8985 17.1372 18.0192 16.4955 18.0192C14.4434 18.0192 12.6644 16.8184 11.8194 15.084C11.5462 15.3444 11.2476 15.5795 10.9299 15.7892C11.991 17.7778 14.0876 19.1374 16.4955 19.1374C17.1944 19.1374 17.8869 19.0231 18.5477 18.7944L22.2136 20.3573C22.2835 20.3891 22.3597 20.4018 22.4296 20.4018C22.5694 20.4018 22.7028 20.3509 22.8045 20.2556C22.9633 20.0904 23.0205 19.8617 22.957 19.6584Z" fill="#23B574"/>
<path d="M13.7956 10.4833C13.7956 9.81616 13.694 9.17446 13.497 8.56453C13.3827 8.20239 13.2302 7.85295 13.0523 7.51622C11.9913 5.5276 9.89463 4.16797 7.48668 4.16797C4.01136 4.16797 1.17773 6.99524 1.17773 10.4769C1.17773 11.6841 1.51447 12.8467 2.16251 13.8569L1.02525 17.3195C0.955365 17.5292 1.0189 17.7579 1.17773 17.9041C1.27939 17.9994 1.41916 18.0502 1.55259 18.0502C1.62883 18.0502 1.69871 18.0375 1.7686 18.0057L5.43453 16.4428C6.09528 16.6715 6.78145 16.7859 7.48668 16.7859C8.75101 16.7859 9.93275 16.411 10.9175 15.7693C11.2352 15.5596 11.5338 15.3246 11.807 15.0641C13.0332 13.9205 13.7956 12.2876 13.7956 10.4833ZM5.2058 15.3373L2.46748 16.5063L3.30613 13.9522C3.36331 13.787 3.33154 13.6028 3.22989 13.4567C2.61361 12.5799 2.28958 11.5506 2.28958 10.4769C2.28958 7.61152 4.62129 5.27982 7.48668 5.27982C10.3521 5.27982 12.6838 7.61152 12.6838 10.4769C12.6838 13.3423 10.3521 15.674 7.48668 15.674C6.84498 15.674 6.216 15.5596 5.61877 15.3246C5.49171 15.2801 5.33922 15.2801 5.2058 15.3373Z" fill="#23B574"/>
<path d="M7.99597 9.71454C7.99597 9.49852 7.84984 9.15544 7.41781 9.15544C6.96671 9.15544 6.78246 9.51123 6.78246 9.8289V9.89879H5.98193V9.8289C5.98193 8.90765 6.54739 8.4375 7.43051 8.4375C8.31999 8.4375 8.82827 8.92036 8.82827 9.63194C8.82827 10.6548 7.79266 10.6231 7.79266 11.3347V11.4871H6.96671V11.3283C6.96671 10.2991 7.99597 10.3245 7.99597 9.71454ZM7.37333 11.9382C7.62112 11.9382 7.84349 12.1288 7.84349 12.4084C7.84349 12.6879 7.62747 12.8785 7.37333 12.8785C7.1192 12.8785 6.90318 12.6879 6.90318 12.4084C6.90318 12.1288 7.1192 11.9382 7.37333 11.9382Z" fill="#0C579B"/>
</svg>
