<svg width="24" height="24" viewBox="0 0 24 24" fill="none" xmlns="http://www.w3.org/2000/svg">
<path d="M11.0472 11.628C12.1861 11.628 13.3315 11.628 14.4705 11.628C14.5863 11.628 14.715 11.6409 14.8244 11.6859C15.056 11.776 15.1912 12.0141 15.1783 12.2586C15.159 12.5031 14.9917 12.7155 14.7472 12.7798C14.6442 12.8056 14.5284 12.812 14.419 12.812C12.1732 12.812 9.93395 12.812 7.68821 12.812C7.61743 12.812 7.54664 12.812 7.47586 12.8056C7.14769 12.7605 6.92247 12.5031 6.93534 12.1878C6.95464 11.8725 7.19273 11.6345 7.52734 11.628C7.99064 11.6216 8.44751 11.6216 8.91082 11.6216C9.62508 11.628 10.3329 11.628 11.0472 11.628Z" fill="#23B574"/>
<path d="M11.0416 8.67495C12.1741 8.67495 13.3066 8.67495 14.4391 8.67495C14.4971 8.67495 14.5614 8.67495 14.6193 8.67495C14.9346 8.70069 15.1663 8.93877 15.1791 9.24121C15.192 9.54364 14.9797 9.7946 14.6644 9.84608C14.5743 9.85895 14.4842 9.85895 14.3941 9.85895C12.1677 9.85895 9.94767 9.85895 7.72124 9.85895C7.59898 9.85895 7.47671 9.85251 7.36732 9.82034C7.09706 9.74956 6.91689 9.48573 6.94263 9.20903C6.96837 8.94521 7.17428 8.71999 7.43811 8.68138C7.52819 8.66851 7.61828 8.67495 7.70837 8.67495C8.81515 8.67495 9.92836 8.67495 11.0416 8.67495Z" fill="#0C579B"/>
<path d="M12.862 5.72649C13.4346 5.72649 14.0009 5.72006 14.5736 5.72649C14.8696 5.73293 15.0819 5.90023 15.1527 6.15762C15.2235 6.39571 15.1206 6.68527 14.8953 6.80753C14.7795 6.87188 14.6315 6.89762 14.4964 6.89762C14.1553 6.91049 13.8143 6.90406 13.4733 6.90406C12.6946 6.90406 11.9096 6.90406 11.131 6.89762C10.7771 6.89762 10.539 6.71745 10.4875 6.43432C10.4103 6.04823 10.6741 5.73293 11.0924 5.72649C11.678 5.72006 12.27 5.72649 12.862 5.72649Z" fill="#23B574"/>
<path d="M14.4643 14.5806C14.4128 14.5806 14.3614 14.5806 14.3163 14.5806C13.2353 14.5806 12.1542 14.5806 11.0732 14.5806C10.7707 14.5806 10.4747 14.5806 10.1723 14.5806C9.32292 14.5806 8.4671 14.5806 7.61771 14.5806C7.36675 14.5806 7.16084 14.6513 7.03214 14.8701C6.78762 15.2691 7.07719 15.771 7.61127 15.771C9.90205 15.7646 12.1993 15.771 14.49 15.771C14.9083 15.771 15.1786 15.5329 15.185 15.179C15.1786 14.8122 14.9083 14.5806 14.4643 14.5806Z" fill="#0C579B"/>
<path d="M11.0732 17.5278C9.93424 17.5278 8.78885 17.5278 7.64989 17.5278C7.55981 17.5278 7.46972 17.5343 7.37963 17.5536C7.10937 17.6244 6.9292 17.856 6.9292 18.1198C6.9292 18.3965 7.12224 18.6346 7.40537 18.699C7.48259 18.7183 7.56624 18.7183 7.64346 18.7183C9.57389 18.7183 11.5043 18.7183 13.4348 18.7183C13.5377 18.2871 13.7179 17.8817 13.956 17.5278C13.0036 17.5278 12.0384 17.5278 11.0732 17.5278Z" fill="#23B574"/>
<path d="M5.19826 19.8701C5.19826 15.7518 5.19826 11.6465 5.19826 7.48959C5.32696 7.48959 5.43635 7.48959 5.54574 7.48959C6.35652 7.48959 7.17374 7.46385 7.98452 7.49602C8.80817 7.52819 9.32939 6.86541 9.30365 6.18976C9.26504 5.36611 9.29722 4.54889 9.29722 3.72524C9.29722 3.61585 9.29722 3.51289 9.29722 3.3842C11.8518 3.3842 14.3743 3.3842 16.9224 3.3842C16.9224 7.58611 16.9224 11.7816 16.9224 15.9835C17.3471 15.9835 17.759 16.0607 18.1386 16.2023C18.1386 14.6772 18.1386 13.1522 18.1386 11.6271C18.1386 8.91811 18.1257 6.20907 18.145 3.50646C18.1515 2.69568 17.5659 2.16159 16.8195 2.16803C14.355 2.19377 11.884 2.1809 9.41948 2.17446C8.78243 2.17446 8.24835 2.39324 7.79791 2.84368C6.74905 3.89898 5.70661 4.94785 4.65774 5.99672C4.22661 6.42785 4.00783 6.9555 4.0014 7.5668C3.99496 11.6465 4.0014 15.7325 4.0014 19.8122C4.0014 20.5844 4.49687 21.0734 5.26261 21.0734C8.08104 21.0734 10.8995 21.0734 13.7179 21.0734C13.5377 20.7002 13.4219 20.2948 13.3769 19.8637C10.6485 19.8701 7.92661 19.8701 5.19826 19.8701ZM8.09391 4.22072C8.09391 4.94141 8.09391 5.6042 8.09391 6.30559C7.41183 6.30559 6.75548 6.30559 6.02191 6.30559C6.72331 5.59776 7.38609 4.92854 8.09391 4.22072Z" fill="#23B574"/>
<path d="M16.2339 18.0298C16.7615 17.811 17.2763 17.8689 17.7782 18.1585C17.5916 18.3451 17.4114 18.5188 17.2184 18.7054C17.9455 18.8599 18.6469 19.0079 19.3612 19.1559C19.2132 18.4416 19.0652 17.7338 18.9108 17.0195C18.7499 17.1868 18.5954 17.3348 18.4474 17.4893C18.4153 17.5214 18.396 17.5279 18.3509 17.5021C17.6624 17.0324 16.9095 16.8973 16.1181 17.1482C15.1786 17.4442 14.6059 18.0941 14.3742 19.0465C14.3485 19.1559 14.3421 19.2653 14.3228 19.3811C14.6123 19.4454 14.8955 19.5034 15.1786 19.5613C15.2301 18.8341 15.5711 18.3129 16.2339 18.0298Z" fill="#0C579B"/>
<path d="M18.5824 19.6392C18.5117 20.4049 18.1384 20.939 17.4242 21.1964C16.9287 21.3766 16.4461 21.3058 15.9635 21.0226C16.1501 20.836 16.3303 20.6623 16.5104 20.4821C15.8026 20.3341 15.1077 20.1861 14.387 20.0317C14.5414 20.7459 14.6894 21.4473 14.8438 22.168C15.0176 21.9879 15.1849 21.827 15.3457 21.6597C16.3238 22.2903 17.3148 22.3546 18.2993 21.724C18.9878 21.2865 19.3482 20.6237 19.4318 19.8065C19.1423 19.755 18.8591 19.6971 18.5824 19.6392Z" fill="#0C579B"/>
</svg>
