<svg width="21" height="17" viewBox="0 0 21 17" fill="none" xmlns="http://www.w3.org/2000/svg">
<path d="M18.2002 16.5191H3.85178C2.27428 16.5191 0.991699 15.2366 0.991699 13.6591V1.97181C0.991699 0.977297 1.80103 0.167969 2.79554 0.167969H6.36207C7.35658 0.167969 8.16591 0.977297 8.16591 1.97181C8.16591 2.09527 8.26879 2.19815 8.39225 2.19815H18.1316C19.7091 2.19815 20.9917 3.48073 20.9917 5.05823V13.7276C20.9848 15.2709 19.7366 16.5191 18.2002 16.5191ZM2.78868 1.66317C2.61721 1.66317 2.48004 1.80034 2.48004 1.97181V13.6522C2.48004 14.4067 3.09046 15.0171 3.84492 15.0171H18.1933C18.9067 15.0171 19.4828 14.4409 19.4828 13.7276V5.05823C19.4828 4.30377 18.8724 3.69335 18.1179 3.69335H8.37853C7.43203 3.69335 6.65699 2.91831 6.65699 1.97181C6.65699 1.80034 6.51982 1.66317 6.34835 1.66317H2.78868Z" fill="#23B574"/>
</svg>
