<svg width="18" height="18" viewBox="0 0 18 18" fill="none" xmlns="http://www.w3.org/2000/svg">
<path d="M17.0001 8.3335H9.66678V1.00016C9.66678 0.823352 9.59654 0.653783 9.47152 0.528758C9.34649 0.403734 9.17692 0.333496 9.00011 0.333496C8.8233 0.333496 8.65373 0.403734 8.52871 0.528758C8.40368 0.653783 8.33344 0.823352 8.33344 1.00016V8.3335H1.00011C0.8233 8.3335 0.653731 8.40373 0.528707 8.52876C0.403683 8.65378 0.333445 8.82335 0.333445 9.00016C0.330155 9.08681 0.345476 9.17315 0.378375 9.25337C0.411274 9.33359 0.460986 9.40583 0.524162 9.46522C0.587339 9.5246 0.66251 9.56975 0.744612 9.59763C0.826713 9.62551 0.913837 9.63547 1.00011 9.62683H8.33344V17.0002C8.33344 17.177 8.40368 17.3465 8.52871 17.4716C8.65373 17.5966 8.8233 17.6668 9.00011 17.6668C9.17692 17.6668 9.34649 17.5966 9.47152 17.4716C9.59654 17.3465 9.66678 17.177 9.66678 17.0002V9.66683H17.0001C17.1769 9.66683 17.3465 9.59659 17.4715 9.47157C17.5965 9.34654 17.6668 9.17697 17.6668 9.00016C17.6668 8.82335 17.5965 8.65378 17.4715 8.52876C17.3465 8.40373 17.1769 8.3335 17.0001 8.3335Z" fill="#FEFEFF"/>
</svg>
